<?xml version="1.0" standalone="no"?>
<!DOCTYPE svg PUBLIC "-//W3C//DTD SVG 20010904//EN"
 "http://www.w3.org/TR/2001/REC-SVG-20010904/DTD/svg10.dtd">
<svg version="1.0" xmlns="http://www.w3.org/2000/svg"
 width="735.000000pt" height="619.000000pt" viewBox="0 0 735.000000 619.000000"
 preserveAspectRatio="xMidYMid meet">

<g transform="translate(0.000000,619.000000) scale(0.100000,-0.100000)"
fill="#000000" stroke="none">
<path d="M3435 6184 c-16 -3 -118 -23 -225 -45 -143 -30 -236 -42 -350 -49
-165 -10 -168 -10 -390 -70 -80 -22 -188 -46 -240 -54 -102 -14 -434 -108
-558 -157 -170 -68 -251 -118 -367 -229 -84 -81 -120 -108 -154 -119 -55 -16
-196 -101 -312 -187 -113 -84 -237 -214 -279 -293 -18 -34 -51 -80 -72 -102
-21 -21 -38 -42 -38 -47 0 -4 -39 -53 -88 -108 -159 -182 -188 -231 -251 -425
-96 -299 -111 -353 -111 -396 0 -25 14 -105 31 -177 23 -96 30 -151 29 -206
-7 -218 -7 -222 23 -283 17 -34 63 -93 111 -145 78 -82 83 -91 95 -152 33
-166 156 -305 391 -440 41 -23 94 -56 117 -72 66 -45 142 -66 281 -78 149 -14
200 -24 250 -49 63 -32 82 -62 117 -183 17 -62 37 -125 43 -139 15 -37 71
-100 102 -113 14 -6 57 -32 95 -57 82 -54 316 -178 395 -210 30 -12 107 -34
170 -50 137 -34 254 -38 437 -13 91 13 128 14 163 6 127 -31 218 -23 348 29
86 34 153 38 197 10 18 -10 48 -48 70 -87 30 -54 84 -114 246 -274 177 -175
211 -214 233 -264 30 -69 89 -153 187 -268 99 -117 178 -241 260 -406 79 -159
130 -222 213 -261 44 -22 57 -23 150 -18 109 6 180 25 216 59 39 36 24 109
-94 443 -19 55 -38 128 -42 162 -6 60 -6 62 17 67 78 18 317 46 394 46 104 0
197 12 310 40 44 11 139 26 210 34 156 18 223 40 315 101 137 91 260 260 340
467 27 69 70 244 70 284 l0 32 108 -5 c191 -9 290 30 371 150 27 40 95 133
151 207 123 164 184 283 210 412 25 119 25 199 -1 400 -16 123 -20 198 -17
303 5 158 -4 212 -52 320 -45 99 -70 173 -70 209 -1 52 -42 136 -133 268 -48
70 -95 148 -105 174 -12 34 -51 84 -137 178 -66 72 -133 148 -148 169 -46 61
-96 178 -112 262 -27 138 -89 205 -285 306 -104 53 -157 100 -183 159 -40 90
-247 311 -398 423 -280 210 -1093 446 -1534 447 -183 1 -314 14 -395 40 -65
21 -254 35 -325 24z m290 -60 c28 -9 86 -21 129 -28 l79 -12 -69 -42 c-57 -34
-80 -42 -120 -42 -138 -1 -293 -84 -336 -181 -16 -36 -24 -37 -31 -1 -13 65
-108 157 -229 221 -41 21 -53 31 -40 35 42 12 224 49 302 62 102 16 245 11
315 -12z m760 -78 c169 -31 339 -74 458 -116 129 -45 268 -111 260 -123 -3 -6
-1 -7 5 -3 14 8 45 -7 177 -86 266 -158 457 -347 509 -502 26 -78 23 -80 -56
-40 -162 82 -259 164 -319 269 -29 52 -50 67 -64 45 -10 -16 42 -105 96 -164
68 -75 148 -131 291 -202 111 -56 117 -61 128 -99 23 -79 76 -144 139 -171 42
-18 124 -17 176 1 l40 14 41 -40 c75 -73 131 -227 122 -333 l-3 -37 -67 46
c-42 29 -71 58 -79 78 -21 51 -137 160 -202 191 -91 43 -186 59 -302 52 l-100
-5 -170 173 c-112 114 -191 186 -232 211 l-62 37 21 41 c26 51 35 155 18 197
-18 43 -69 84 -133 109 -31 11 -139 36 -242 56 -102 20 -196 40 -208 45 -34
14 53 12 238 -5 214 -19 254 -19 262 1 9 23 -15 34 -77 34 -30 0 -136 7 -235
15 -99 8 -195 15 -212 15 -30 0 -33 3 -33 33 0 95 -40 143 -148 178 -61 20
-95 23 -357 28 l-290 6 44 29 c86 55 93 57 266 52 113 -3 201 -12 300 -30z
m-1321 -68 c101 -61 168 -137 180 -203 4 -19 11 -35 16 -35 6 0 7 -24 4 -57
-4 -36 0 -82 8 -119 l15 -62 -54 -108 c-29 -60 -61 -133 -70 -163 -16 -48 -31
-67 -145 -175 -158 -150 -218 -222 -251 -306 -33 -86 -41 -172 -27 -300 16
-145 28 -190 51 -190 23 0 23 8 4 125 -17 103 -19 230 -5 293 23 97 49 133
224 308 l171 171 37 99 c68 180 191 367 275 416 36 21 45 58 16 58 -27 0 -108
-68 -152 -127 -45 -60 -51 -55 -51 41 0 162 102 274 278 306 48 8 92 8 180 -1
72 -7 175 -9 267 -5 170 8 308 -4 393 -34 73 -26 82 -36 91 -103 10 -73 -1
-76 -116 -29 -173 70 -305 42 -437 -90 -76 -77 -134 -186 -143 -271 -5 -50
-10 -59 -37 -77 l-31 -19 -40 39 c-22 21 -63 47 -92 58 -28 11 -64 29 -79 41
-34 26 -54 27 -54 1 0 -22 54 -60 122 -87 43 -16 98 -59 98 -76 0 -4 -12 -23
-26 -42 -14 -18 -40 -69 -59 -113 -49 -118 -62 -140 -121 -212 -30 -35 -61
-84 -70 -107 l-16 -42 -39 32 c-21 18 -75 48 -121 66 -46 19 -102 44 -125 57
-48 27 -73 30 -73 9 0 -21 61 -59 154 -96 106 -43 149 -70 168 -108 13 -28 13
-41 -4 -128 -10 -54 -21 -162 -25 -240 -6 -142 -6 -143 16 -143 19 0 21 6 21
49 0 71 18 243 36 338 27 150 49 205 117 290 34 44 75 108 91 144 65 151 89
189 137 224 254 187 617 142 964 -119 47 -35 76 -51 85 -46 21 13 4 37 -60 84
l-60 44 51 11 c115 25 342 1 356 -37 9 -24 25 -33 39 -21 29 24 190 -116 422
-368 115 -124 258 -243 293 -243 37 0 20 34 -36 69 -29 19 -75 56 -102 83
l-47 48 101 0 c250 0 412 -119 469 -345 4 -16 13 -25 26 -25 17 0 20 5 16 30
-4 29 5 40 16 21 3 -5 61 -40 127 -77 148 -84 201 -132 217 -197 7 -26 32 -86
57 -133 25 -47 45 -92 45 -100 0 -8 5 -14 10 -14 17 0 77 -137 105 -240 15
-52 44 -142 65 -200 54 -147 68 -192 95 -301 23 -94 52 -315 43 -324 -3 -3
-11 7 -19 23 -32 63 -145 206 -212 268 -66 61 -170 124 -206 124 -11 0 -13 22
-8 127 5 136 -3 184 -49 274 -28 56 -116 154 -156 175 -55 28 -68 -12 -14 -44
49 -29 121 -125 152 -202 l26 -65 -7 -220 c-6 -222 -3 -254 29 -242 11 5 16
24 18 82 l3 76 65 -32 c113 -56 267 -233 354 -406 30 -61 32 -104 11 -246 -16
-109 -35 -159 -87 -232 -20 -28 -45 -70 -58 -94 -12 -23 -40 -67 -63 -95 -23
-29 -62 -81 -87 -116 -47 -66 -112 -116 -205 -157 -28 -12 -80 -35 -116 -51
-37 -16 -84 -33 -106 -36 -48 -9 -289 9 -422 30 -53 8 -190 30 -306 49 -577
93 -832 85 -1127 -36 -91 -38 -106 -41 -159 -35 -54 5 -196 33 -364 71 -82 19
-257 31 -307 21 -20 -4 -55 -20 -79 -36 l-44 -30 -160 1 -160 1 -185 -65
c-102 -35 -266 -95 -365 -132 l-180 -67 -120 4 c-70 2 -143 11 -175 20 -30 9
-82 24 -115 33 -45 13 -305 131 -305 139 0 0 55 1 123 2 111 0 130 3 213 32
69 24 97 30 120 23 44 -13 152 -69 217 -113 57 -38 87 -43 87 -15 0 20 -144
110 -249 156 -52 23 -98 41 -102 41 -30 0 -126 48 -157 79 -60 58 -87 123 -86
211 0 71 3 82 59 203 58 123 61 127 95 132 68 11 152 36 217 65 l65 30 19 -23
c29 -35 87 -160 104 -223 16 -63 27 -80 44 -70 33 21 -22 182 -107 313 -14 22
-12 24 49 53 61 29 70 30 199 30 74 0 151 5 170 10 20 5 71 32 115 59 l80 49
24 -21 c13 -12 37 -50 53 -84 16 -36 35 -63 43 -63 37 0 1 106 -57 166 l-29
31 48 24 c45 22 63 24 268 30 202 5 227 8 305 33 114 36 143 36 208 -5 90 -56
209 -50 360 17 l57 25 -29 -30 c-27 -28 -31 -61 -7 -61 5 0 43 30 84 68 40 37
139 126 219 199 82 74 181 175 226 232 74 92 177 252 201 312 5 13 16 41 25
61 l16 37 62 -29 c72 -34 163 -58 228 -62 39 -3 45 0 45 17 0 17 -11 21 -77
32 -89 15 -175 45 -211 73 l-25 20 25 80 c26 81 25 110 -1 110 -10 0 -22 -24
-36 -72 -99 -341 -306 -635 -591 -840 -150 -108 -321 -180 -430 -182 -59 -1
-71 3 -126 37 -36 22 -74 37 -92 37 -17 0 -79 -14 -138 -32 -102 -29 -118 -31
-296 -33 -211 -3 -205 -5 -240 75 -16 34 -21 66 -20 128 0 73 -2 82 -18 82
-25 0 -33 -35 -27 -125 4 -52 12 -87 31 -123 l26 -49 -27 -13 c-15 -6 -71 -40
-124 -76 -151 -98 -138 -94 -311 -96 l-152 -1 -33 54 c-18 30 -40 78 -49 107
-12 38 -22 52 -35 52 -31 0 -21 -53 27 -146 25 -48 44 -88 42 -90 -31 -26
-293 -132 -362 -147 -71 -14 -177 0 -265 37 -36 15 -77 33 -92 39 -21 9 -31 8
-40 -1 -11 -11 -8 -17 12 -32 29 -22 149 -68 220 -84 l48 -11 -55 -115 c-51
-106 -56 -122 -60 -200 -4 -70 -1 -95 16 -141 29 -78 89 -142 164 -178 l61
-29 -60 -18 c-42 -13 -92 -19 -174 -19 -188 0 -242 8 -297 47 -26 18 -61 40
-78 50 -16 9 -29 21 -28 27 2 6 -2 10 -9 8 -18 -3 -57 61 -74 122 -54 198 -65
218 -148 277 l-30 20 12 106 c6 59 20 128 30 155 22 57 207 302 319 422 141
152 282 249 396 272 29 6 171 12 317 12 146 1 272 6 281 10 19 10 42 -32 58
-106 9 -37 8 -56 -4 -92 -24 -69 0 -91 35 -32 26 42 26 111 0 184 -11 32 -20
60 -20 63 0 3 15 11 34 18 18 7 61 30 95 52 34 22 66 40 71 40 6 0 10 4 10 9
0 12 104 57 174 75 33 9 95 19 138 22 71 6 85 11 156 56 92 58 123 68 227 75
125 8 217 -10 305 -60 94 -54 168 -83 181 -70 12 12 1 43 -15 43 -9 0 -135 56
-143 64 -1 1 38 43 86 93 83 85 94 101 170 254 76 153 92 201 73 213 -16 10
-29 -11 -75 -112 -86 -194 -162 -307 -257 -382 l-40 -32 -62 15 c-85 20 -191
28 -259 18 l-57 -7 -6 44 c-8 60 -42 126 -92 176 -53 54 -90 74 -107 57 -9 -9
2 -23 49 -66 63 -56 96 -113 107 -186 5 -32 2 -38 -21 -48 -15 -7 -55 -31 -90
-53 -58 -38 -70 -42 -159 -50 -80 -7 -165 -28 -253 -62 -12 -5 -15 6 -15 61
-1 90 -34 150 -140 254 -73 72 -115 97 -115 67 0 -6 40 -52 88 -102 105 -109
124 -149 120 -251 l-3 -69 -55 -38 c-140 -94 -234 -112 -536 -102 l-220 7 -57
178 c-32 98 -73 256 -91 351 -20 98 -46 199 -61 233 -40 89 -125 227 -138 222
-24 -8 -16 -35 32 -120 75 -129 87 -165 125 -357 20 -96 57 -242 84 -325 66
-204 67 -205 43 -205 -32 0 -173 -77 -238 -130 -34 -27 -67 -50 -74 -50 -22 0
-119 82 -180 152 -33 39 -72 80 -88 94 -52 44 -405 244 -430 244 -6 0 -11 -9
-11 -19 0 -19 12 -27 175 -116 191 -106 210 -120 335 -246 69 -69 135 -129
148 -133 25 -8 28 -21 7 -33 -17 -10 -137 -149 -209 -243 l-48 -63 -127 6
c-142 7 -237 27 -296 62 -88 51 -215 201 -215 253 0 13 15 65 34 116 19 50 40
119 46 152 12 59 10 67 -23 185 -75 262 -105 331 -123 285 -3 -8 19 -98 50
-198 31 -101 56 -201 56 -223 0 -42 -20 -111 -65 -230 -33 -86 -29 -114 29
-198 l44 -64 -47 8 c-226 37 -392 228 -391 452 1 98 12 141 71 262 48 99 57
142 26 133 -6 -2 -25 -30 -42 -61 -16 -31 -37 -57 -45 -57 -8 0 -53 22 -99 48
-72 41 -88 55 -110 98 -22 42 -26 61 -26 139 0 80 3 97 32 157 17 36 50 84 72
106 51 49 169 111 281 147 47 14 98 31 113 35 26 9 28 8 21 -13 -4 -12 -19
-76 -34 -142 -22 -98 -25 -123 -15 -134 18 -19 32 -7 40 36 33 187 119 458
195 620 107 226 163 273 329 273 76 0 96 11 107 58 31 128 130 182 424 232
195 33 333 43 499 37 163 -6 240 -21 319 -61 l44 -22 -62 -60 c-74 -70 -174
-200 -204 -264 -11 -25 -22 -47 -23 -49 -3 -4 -164 83 -214 116 -21 14 -36 30
-32 36 3 6 1 7 -6 3 -7 -4 -51 18 -105 52 -153 99 -197 116 -196 79 1 -13 392
-259 483 -303 39 -20 56 -33 52 -43 -15 -38 -25 -162 -25 -309 l0 -163 -29 34
c-36 40 -106 79 -186 103 -68 21 -250 24 -322 7 -51 -13 -57 -7 -73 62 -8 37
-8 81 1 173 9 92 9 126 0 135 -19 19 -32 -6 -41 -79 -14 -108 -12 -230 5 -271
8 -19 15 -38 15 -42 0 -3 -18 -15 -40 -25 -42 -20 -87 -81 -144 -194 l-27 -53
-32 27 c-113 95 -141 131 -160 205 -19 73 -43 74 -41 1 2 -70 50 -143 139
-213 36 -28 65 -56 65 -63 0 -17 -49 -83 -86 -118 -57 -53 -193 -103 -337
-124 -42 -6 -48 -9 -45 -28 3 -18 8 -21 43 -18 66 6 218 48 281 78 87 41 138
101 234 274 52 93 96 161 115 175 46 35 129 56 246 62 205 11 344 -52 405
-182 20 -43 24 -67 25 -165 2 -179 11 -254 30 -258 9 -2 18 3 21 10 2 7 0 87
-4 178 -5 91 -7 296 -5 455 3 269 5 294 25 348 40 109 91 178 255 344 144 146
171 183 134 183 -7 0 -32 -20 -57 -44 -48 -46 -44 -46 -98 -10 -2 1 2 29 8 61
32 155 116 269 282 381 31 22 45 37 42 47 -4 8 -12 15 -18 15 -17 0 -122 -74
-170 -118 -35 -34 -38 -35 -31 -12 31 106 157 220 272 245 38 8 49 21 33 40
-25 30 -171 -39 -255 -121 l-53 -53 -7 70 c-6 60 -10 69 -27 69 -18 0 -19 -6
-15 -82 2 -46 8 -96 12 -113 5 -20 4 -27 -3 -20 -5 6 -12 19 -14 30 -2 12 -11
20 -23 20 -14 0 -19 -6 -18 -20 2 -11 6 -46 9 -77 6 -47 10 -58 25 -58 16 0
15 -5 -11 -43 -36 -54 -66 -129 -75 -191 -7 -43 -10 -47 -29 -41 -129 37 -343
50 -553 32 l-92 -8 11 32 c11 33 6 105 -13 169 -9 29 -18 40 -32 40 -16 0 -18
-5 -13 -32 16 -84 18 -159 6 -188 -7 -16 -14 -30 -15 -30 -19 0 -196 -35 -254
-51 -165 -44 -240 -97 -276 -195 -10 -27 -20 -51 -22 -53 -1 -2 -35 -5 -75 -6
-114 -4 -153 -18 -215 -82 -65 -68 -165 -263 -222 -432 l-38 -114 -104 -29
c-119 -33 -271 -102 -331 -150 -55 -43 -114 -137 -140 -221 -27 -89 -21 -175
16 -251 14 -29 26 -58 26 -64 0 -6 -21 -29 -46 -51 -30 -26 -44 -46 -40 -56 9
-24 24 -18 78 33 l51 49 76 -43 c42 -24 81 -47 88 -51 9 -6 8 -22 -8 -66 -73
-214 10 -451 205 -583 28 -19 48 -34 44 -34 -3 0 -48 16 -99 36 -66 26 -116
38 -166 42 l-73 5 -78 81 c-43 45 -89 104 -102 131 -25 52 -25 51 -20 270 2
73 -3 114 -29 215 -37 150 -38 179 -7 272 14 40 45 140 71 222 76 244 89 267
273 481 121 140 162 164 292 173 l75 5 -46 -54 c-25 -30 -86 -89 -135 -133
-90 -79 -104 -98 -84 -111 27 -17 241 188 334 318 88 125 191 355 171 387 -16
25 -35 6 -55 -57 -25 -78 -76 -186 -120 -255 l-30 -48 -63 0 c-34 0 -88 -6
-119 -14 l-57 -13 21 41 c51 101 189 235 359 348 63 42 137 86 164 98 28 12
63 28 78 36 16 8 34 11 40 7 7 -3 9 -3 6 1 -3 3 40 50 95 105 143 138 284 211
567 291 79 22 151 43 159 45 13 4 15 -2 12 -29 -2 -18 1 -44 8 -56 6 -12 10
-23 8 -25 -2 -2 -67 -10 -146 -19 -283 -33 -479 -120 -631 -281 -50 -52 -52
-58 -37 -73 15 -15 20 -13 62 36 92 105 267 205 425 241 46 11 149 27 229 36
225 26 331 69 443 180 30 30 47 55 44 65 -8 29 216 82 378 89 119 6 136 4 194
-17 36 -12 87 -36 115 -54z m-777 -64 c-59 -55 -141 -103 -210 -122 -38 -11
-39 -10 -53 25 -14 33 -14 37 7 68 21 30 29 33 88 39 36 3 100 15 141 25 41
10 77 19 80 20 3 0 -21 -24 -53 -55z m3073 -158 c76 -34 157 -80 205 -116 144
-108 365 -342 380 -403 14 -55 88 -119 221 -192 190 -104 219 -139 258 -309 9
-38 27 -94 41 -124 24 -51 25 -59 14 -116 -13 -71 -15 -77 -33 -70 -10 4 -15
35 -18 112 -11 234 -112 361 -403 503 -78 38 -146 69 -152 69 -6 0 -16 26 -21
59 -34 192 -225 397 -562 601 -100 62 -94 60 70 -14z m-905 -48 c156 -66 162
-67 394 -112 255 -50 311 -78 327 -162 8 -46 -32 -178 -53 -170 -113 44 -299
54 -420 24 -34 -8 -66 -12 -70 -7 -4 4 -44 25 -88 47 -230 114 -442 139 -630
73 -51 -18 -56 -18 -51 -3 2 9 8 33 11 52 22 107 130 239 239 292 55 26 69 29
136 25 63 -4 96 -13 205 -59z m1585 -724 c47 -24 98 -52 114 -62 31 -22 31
-21 -37 -36 -70 -16 -165 45 -194 123 -11 30 -11 32 10 25 12 -4 60 -26 107
-50z m656 -669 c64 -70 106 -124 114 -148 13 -42 7 -107 -13 -145 -12 -21 -14
-19 -49 45 -20 38 -43 93 -52 123 -20 69 -63 122 -136 169 l-56 36 9 40 c15
68 15 68 49 28 18 -21 78 -87 134 -148z m236 -350 c78 -113 109 -179 115 -245
6 -58 -5 -90 -56 -164 -18 -27 -19 -28 -30 -8 -6 11 -24 71 -41 133 -17 63
-48 150 -69 193 l-38 79 24 54 c14 30 29 51 33 46 4 -4 32 -44 62 -88z m194
-462 l38 -88 2 -180 c0 -120 8 -240 24 -360 41 -324 7 -468 -164 -705 -231
-320 -227 -317 -143 -110 61 154 77 185 131 265 49 70 71 129 85 225 40 262
11 570 -79 834 l-29 87 42 63 c23 35 45 62 48 60 4 -2 24 -43 45 -91z m-6706
-551 c52 -19 130 -45 174 -57 76 -21 78 -22 55 -36 -13 -9 -55 -29 -93 -45
-68 -29 -87 -47 -69 -65 14 -14 145 44 221 98 36 27 71 51 77 55 6 4 33 -10
59 -32 45 -37 138 -80 174 -80 9 0 30 -20 45 -44 32 -52 60 -71 120 -87 l43
-12 -14 -51 c-7 -28 -16 -91 -19 -140 l-6 -88 -46 6 c-25 3 -96 11 -156 16
-127 12 -197 30 -246 63 -19 12 -72 45 -119 71 -178 102 -303 214 -356 319
-26 49 -46 135 -37 150 9 15 93 -3 193 -41z m160 -2 c8 -5 11 -10 5 -10 -5 0
-17 5 -25 10 -8 5 -10 10 -5 10 6 0 17 -5 25 -10z m668 -188 l53 -7 -28 -32
c-27 -32 -29 -32 -74 -22 -29 6 -57 21 -74 40 l-29 29 50 -1 c27 -1 73 -4 102
-7z m5534 -840 c-21 -56 -42 -106 -47 -111 -29 -29 -254 -56 -269 -33 -2 4 23
18 57 31 99 38 192 97 241 153 25 29 46 57 46 62 0 5 2 7 5 5 2 -3 -13 -51
-33 -107z m-1641 -67 c92 -31 163 -73 261 -153 87 -71 253 -242 297 -306 l32
-46 -43 0 c-41 0 -45 3 -83 56 -51 71 -220 235 -305 295 -106 75 -154 99 -278
140 l-117 38 80 1 c60 0 99 -6 156 -25z m138 10 c47 -5 63 -14 125 -65 141
-115 350 -341 392 -422 14 -27 14 -28 -14 -28 -23 0 -36 10 -62 46 -137 191
-383 406 -530 463 l-55 21 45 -5 c25 -2 69 -7 99 -10z m-319 -25 c141 -41 207
-70 286 -122 97 -65 223 -176 295 -261 83 -99 85 -104 44 -99 -25 3 -44 17
-81 60 -124 145 -350 326 -479 383 -25 11 -92 31 -148 44 -84 19 -94 24 -59
24 23 1 88 -12 142 -29z m-975 -30 c157 -34 143 -36 -85 -10 -96 11 -194 20
-217 20 -45 0 -58 15 -20 24 46 10 196 -6 322 -34z m932 5 c150 -38 318 -150
502 -332 89 -90 115 -132 50 -84 -16 12 -35 21 -41 19 -16 -6 38 -42 92 -62
25 -9 88 -20 140 -25 52 -5 124 -16 160 -25 36 -8 91 -15 123 -16 60 0 65 -4
42 -34 -12 -16 -20 -17 -72 -8 -32 6 -66 13 -75 17 -10 4 -18 3 -18 -3 0 -11
43 -27 103 -37 l38 -6 -26 -31 c-24 -29 -31 -32 -78 -29 -29 1 -104 20 -167
42 -63 21 -171 50 -239 64 -139 28 -141 28 -141 16 0 -5 53 -19 118 -31 64
-12 178 -41 252 -66 75 -24 152 -45 172 -46 33 -3 35 -5 23 -18 -38 -37 -347
22 -522 101 -36 16 -71 28 -77 25 -14 -5 119 -67 204 -94 82 -27 197 -50 289
-58 l72 -7 -32 -33 c-23 -23 -42 -34 -62 -34 -56 0 -195 43 -373 115 -180 74
-312 115 -366 115 -17 0 -27 -4 -23 -10 3 -5 16 -10 29 -10 44 0 178 -40 289
-86 199 -83 287 -114 363 -131 l74 -16 -34 -23 c-33 -23 -35 -23 -121 -9 -104
17 -364 114 -560 210 -133 65 -185 83 -185 65 0 -5 12 -12 28 -16 15 -3 86
-35 158 -70 72 -35 138 -64 145 -65 8 0 5 -4 -6 -9 -31 -13 -83 -11 -114 5
-113 58 -361 90 -869 111 l-163 7 -50 70 c-27 39 -49 73 -49 77 0 3 33 15 73
27 72 21 72 21 185 2 171 -28 428 -58 612 -72 l165 -13 -110 -14 c-79 -11
-201 -15 -437 -14 -181 1 -328 -2 -328 -6 0 -4 100 -11 223 -15 260 -8 525 6
660 35 51 11 177 27 281 35 104 8 191 17 194 20 14 14 -16 16 -115 6 -339 -35
-680 -18 -1118 54 -49 8 -94 15 -100 15 -5 0 33 24 85 52 52 28 89 53 82 56
-7 2 -50 -17 -97 -42 -104 -56 -219 -96 -277 -96 -39 0 -50 6 -112 63 l-68 62
153 2 c146 1 319 22 379 45 41 16 208 9 518 -22 275 -28 452 -37 452 -24 0 3
-14 17 -30 31 -17 13 -27 30 -23 35 3 7 1 8 -5 4 -6 -4 -28 9 -49 27 -96 87
-260 189 -373 233 -34 14 -34 14 25 8 33 -3 101 -16 152 -29z m529 25 c75 -29
337 -270 434 -399 54 -72 52 -79 -17 -80 -27 -1 -37 5 -57 37 -41 66 -108 144
-208 248 -54 55 -95 104 -91 108 4 4 1 5 -7 2 -9 -3 -38 16 -69 44 -44 41 -51
50 -34 50 12 0 34 -5 49 -10z m-648 -50 c103 -49 192 -108 301 -199 83 -71 83
-71 50 -71 -27 0 -40 7 -61 34 -15 19 -58 54 -95 79 -113 74 -242 118 -410
139 -92 12 -92 12 -60 26 114 51 152 49 275 -8z m1000 -27 c56 -45 137 -157
187 -260 25 -51 45 -96 45 -101 0 -5 -18 -14 -39 -19 l-39 -10 -43 61 c-71
100 -233 260 -389 384 -23 19 -20 19 109 -3 113 -20 138 -27 169 -52z m-1998
27 c188 -22 311 -30 328 -22 10 5 40 4 72 -2 l55 -12 -81 -26 c-145 -48 -306
-48 -468 2 -66 21 -83 36 -73 64 6 15 7 15 167 -4z m-363 -20 l41 0 -15 -31
c-34 -68 31 -169 126 -198 28 -8 68 -38 132 -100 l91 -88 -17 -70 -17 -70 46
-88 c52 -98 61 -138 18 -79 -16 21 -85 91 -153 154 -149 138 -183 172 -230
230 -64 81 -78 111 -70 155 9 51 -4 99 -42 154 l-30 44 39 -6 c21 -4 58 -7 81
-7z m145 -36 c-2 -25 1 -66 7 -91 7 -25 10 -47 7 -50 -10 -10 -67 29 -81 57
-23 45 -19 75 16 104 45 38 55 34 51 -20z m2387 28 c113 -17 115 -17 123 -47
14 -46 13 -215 -1 -257 -6 -20 -19 -42 -27 -48 -12 -10 -16 -7 -26 21 -16 48
-85 177 -118 222 -16 21 -47 59 -70 83 -49 52 -53 51 119 26z m-2675 -23 c10
-17 16 -32 14 -34 -16 -16 -257 -99 -265 -91 -1 1 26 30 61 65 90 89 160 111
190 60z m1344 6 c171 -28 308 -87 401 -172 l56 -52 -38 -1 c-33 0 -44 6 -75
41 -74 83 -185 127 -412 165 -47 7 -100 14 -117 14 -18 0 -33 5 -33 10 0 15
111 12 218 -5z m-272 -10 c13 -13 10 -18 -27 -45 -100 -72 -249 -120 -373
-120 -95 0 -305 44 -323 68 -23 29 -13 31 41 7 115 -51 299 -58 416 -17 136
49 240 88 246 95 18 17 -36 4 -134 -34 -161 -62 -211 -72 -327 -66 -147 9
-255 47 -255 91 l0 24 66 -24 c86 -32 229 -49 325 -40 45 4 116 22 170 41 104
37 153 43 175 20z m1982 -32 l-3 -38 -60 0 c-69 0 -141 27 -148 56 -5 18 2 19
105 19 l109 0 -3 -37z m-3286 0 c-34 -47 -90 -96 -101 -88 -7 3 -10 1 -9 -6 4
-16 -54 -38 -99 -38 -18 -1 -51 6 -74 16 -49 19 -49 20 88 68 54 19 123 43
153 54 30 11 56 20 58 21 2 0 -6 -12 -16 -27z m1450 11 c230 -31 372 -80 438
-150 l35 -37 -65 7 c-36 3 -150 15 -255 26 -104 11 -219 20 -255 20 l-65 1 50
25 c28 14 56 32 64 39 28 27 5 24 -42 -6 -108 -67 -305 -109 -550 -115 l-158
-5 -30 32 c-50 54 -39 60 59 32 130 -37 274 -42 377 -14 106 29 219 85 253
127 15 18 28 33 29 33 1 1 53 -6 115 -15z m1774 -74 l51 0 -5 -31 -5 -32 -71
6 c-98 8 -106 12 -106 58 l0 38 43 -19 c23 -11 64 -20 93 -20z m-2938 -20 c-3
-19 -4 -19 -36 2 l-34 21 29 12 c32 13 47 1 41 -35z m2905 -57 c73 -6 71 -3
46 -70 -10 -27 -17 -28 -43 -8 -10 8 -38 17 -62 21 -42 6 -44 8 -44 41 0 29 3
34 18 28 9 -3 47 -9 85 -12z m-39 -83 c62 -14 72 -29 51 -83 l-17 -45 -41 24
c-23 13 -53 24 -66 24 -18 0 -22 4 -16 18 4 9 10 29 13 45 5 30 14 32 76 17z
m-11 -120 c31 -15 33 -27 10 -74 -13 -29 -19 -33 -34 -26 -10 6 -40 15 -68 21
l-51 11 27 47 c25 45 28 48 57 41 17 -4 43 -13 59 -20z m-164 -15 c-21 -35
-22 -35 -87 -34 -37 0 -85 4 -107 8 -36 7 -37 8 -15 14 14 3 55 11 92 17 37 6
78 15 90 20 43 17 48 11 27 -25z m-2120 -28 c114 -200 300 -303 581 -323 131
-9 328 10 636 60 l82 13 103 -39 c57 -22 105 -41 106 -42 1 -1 -21 -2 -50 -3
-29 -1 -82 -10 -117 -20 -93 -26 -678 -26 -847 0 -180 28 -300 80 -401 171
-62 57 -152 180 -152 208 0 33 34 19 59 -25z m7 -118 c106 -139 260 -220 487
-256 78 -12 179 -16 437 -17 302 -1 342 1 405 18 81 23 172 25 300 6 l90 -13
-55 -26 c-60 -27 -118 -33 -500 -46 -157 -6 -228 -3 -464 19 -153 14 -301 26
-327 26 -37 0 -66 9 -126 41 -101 53 -212 131 -286 199 -58 53 -59 55 -53 98
8 61 16 70 34 36 8 -16 34 -54 58 -85z m2193 60 c28 -6 54 -15 57 -20 3 -6 -6
-28 -22 -50 -26 -38 -27 -39 -41 -19 -8 11 -32 29 -54 40 -35 18 -38 22 -27
40 15 23 20 24 87 9z m-58 -71 c55 -31 59 -53 16 -95 l-34 -35 -21 34 c-11 18
-30 39 -42 46 l-21 13 23 29 c28 35 31 35 79 8z m-1917 -52 c119 -56 282 -99
456 -120 19 -2 -14 -2 -74 0 -60 3 -144 11 -185 20 -82 17 -218 78 -266 120
-35 30 -35 30 69 -20z m266 29 c277 -13 457 -37 580 -77 76 -25 69 -31 -66
-47 -229 -28 -511 6 -713 86 -126 51 -128 55 -21 49 52 -3 151 -8 220 -11z
m1584 -66 c30 -35 33 -64 10 -77 -12 -7 -25 1 -54 32 -36 38 -37 42 -23 59 23
24 38 21 67 -14z m-2027 -72 c32 -24 90 -63 130 -86 66 -39 76 -49 123 -129
90 -154 261 -382 285 -382 34 0 14 43 -66 140 -37 45 -167 236 -188 277 -11
21 -10 21 56 -6 91 -37 209 -72 354 -105 24 -5 27 -11 32 -72 4 -38 24 -116
48 -183 71 -203 96 -285 102 -337 7 -60 -4 -70 -98 -90 -99 -22 -173 -18 -233
12 -72 36 -101 73 -186 241 -89 175 -157 280 -275 423 -132 160 -135 163 -132
229 1 32 -3 69 -8 84 -6 15 -8 27 -6 27 3 0 31 -20 62 -43z m1977 12 c31 -37
32 -41 5 -57 -18 -12 -24 -11 -48 10 -14 12 -30 26 -35 30 -11 9 21 48 40 48
7 0 24 -14 38 -31z m-61 -52 c15 -12 24 -37 13 -37 -2 0 -19 -7 -39 -15 -34
-14 -36 -14 -52 11 -16 25 -16 27 6 50 22 24 30 23 72 -9z m-83 -67 c0 -9
-109 -24 -116 -17 -3 2 14 16 38 30 39 23 44 24 61 10 9 -9 17 -19 17 -23z
m-1282 -47 c-10 -2 -28 -2 -40 0 -13 2 -5 4 17 4 22 1 32 -1 23 -4z m224 -19
c115 -11 228 -15 338 -11 l165 4 -110 -15 c-94 -12 -134 -13 -270 -2 -151 11
-350 36 -313 39 9 0 95 -6 190 -15z m-67 -53 c117 -15 125 -18 84 -24 -33 -4
-73 0 -140 17 -115 29 -109 30 56 7z"/>
<path d="M4430 5206 c0 -7 57 -52 128 -99 176 -119 269 -212 291 -294 12 -41
-8 -99 -48 -140 -31 -32 -49 -29 -126 22 -101 66 -114 69 -309 61 -208 -8
-219 -4 -224 68 -2 28 6 77 19 121 35 119 2 150 -37 34 -47 -136 -40 -225 18
-255 24 -12 67 -15 227 -14 l198 0 54 -36 c30 -20 73 -45 97 -56 42 -19 44
-19 80 -1 46 22 93 96 99 157 10 83 -78 201 -237 317 -150 111 -230 150 -230
115z"/>
<path d="M5099 4811 c-130 -36 -206 -83 -171 -105 5 -3 42 8 81 25 146 61 260
70 391 31 40 -12 68 -29 101 -64 47 -48 128 -192 169 -301 16 -43 26 -57 38
-55 29 6 16 56 -53 195 -80 163 -148 241 -235 268 -82 26 -240 29 -321 6z"/>
<path d="M4289 4649 c-61 -14 -150 -57 -231 -111 -80 -54 -110 -90 -91 -109 8
-8 29 4 73 39 115 93 287 161 372 148 108 -17 241 -128 269 -223 10 -34 13
-90 11 -191 -3 -133 -1 -143 15 -140 25 5 34 70 31 213 -3 103 -7 127 -28 170
-56 115 -209 216 -325 214 -33 -1 -76 -5 -96 -10z"/>
<path d="M6214 4576 c-3 -9 -5 -51 -3 -94 4 -75 5 -79 49 -131 91 -109 113
-131 126 -131 27 0 25 27 -3 57 -15 16 -48 54 -73 83 -44 53 -45 56 -50 140
-4 70 -8 85 -23 88 -9 2 -20 -4 -23 -12z"/>
<path d="M6116 4402 c-4 -7 -1 -96 5 -129 1 -4 1 -41 0 -81 l-1 -74 -66 37
c-65 35 -94 39 -94 13 0 -7 55 -44 122 -83 329 -190 371 -261 261 -448 -59
-100 -68 -163 -32 -226 13 -25 30 -41 41 -41 23 0 23 22 -2 62 -28 47 -25 77
17 155 67 125 73 139 77 188 2 28 7 91 11 141 7 85 6 95 -17 145 -42 91 -176
251 -269 322 -39 29 -45 31 -53 19z m243 -294 c50 -76 66 -124 57 -172 l-7
-36 -31 35 c-16 20 -71 63 -122 96 l-91 61 0 120 0 120 76 -80 c42 -44 95
-109 118 -144z"/>
<path d="M5690 4135 c0 -9 32 -77 70 -152 91 -177 91 -180 5 -347 -131 -254
-129 -252 -290 -329 -38 -19 -76 -41 -83 -50 -8 -9 -29 -60 -48 -114 -53 -153
-108 -256 -167 -313 -95 -92 -218 -201 -258 -227 -38 -25 -53 -63 -26 -63 29
0 171 117 312 255 71 70 124 167 181 329 l38 109 73 33 c85 39 85 39 159 -38
127 -132 203 -255 245 -400 18 -60 22 -108 26 -273 3 -110 8 -203 12 -207 3
-4 13 -3 21 2 13 8 15 41 14 197 -1 191 -2 194 -50 362 -6 21 -5 23 12 16 40
-16 189 -17 282 -1 52 9 98 14 103 10 30 -18 80 -161 119 -338 29 -133 41
-159 62 -138 22 22 -59 352 -111 448 l-27 51 89 41 c57 26 87 46 84 54 -6 20
-45 14 -122 -20 -119 -52 -173 -64 -305 -69 -184 -8 -196 -3 -267 105 -31 48
-94 125 -139 172 l-82 85 36 40 c38 41 195 328 207 378 6 21 19 33 57 49 34
14 48 26 46 37 -4 16 -25 18 -65 6 -19 -6 -25 -2 -33 21 -6 16 -40 89 -77 162
-49 98 -71 132 -84 132 -11 0 -19 -7 -19 -15z"/>
<path d="M6842 2737 c-5 -7 -31 -53 -57 -104 -59 -114 -110 -165 -240 -238
-162 -91 -205 -154 -157 -227 28 -42 172 -179 183 -173 21 14 4 42 -76 125
-47 49 -85 95 -85 103 0 29 43 67 133 118 51 28 107 63 126 76 31 24 35 25 65
10 18 -8 57 -38 89 -67 53 -48 77 -56 77 -26 0 15 -81 94 -125 121 -17 11 -32
20 -34 22 -2 1 9 17 23 34 27 31 116 199 116 218 0 15 -28 21 -38 8z"/>
<path d="M5568 2514 c-45 -16 -226 -106 -277 -139 -20 -12 -71 -40 -112 -61
-107 -56 -163 -54 -424 16 l-200 53 -160 -12 c-88 -6 -205 -21 -260 -32 -101
-21 -222 -22 -412 -3 -78 8 -133 -10 -245 -78 -164 -100 -210 -111 -415 -97
-162 11 -168 10 -287 -68 -157 -104 -195 -140 -167 -158 5 -3 71 36 147 87
l137 93 181 -3 c213 -4 263 7 386 84 103 64 172 95 217 96 21 1 89 -5 151 -12
120 -13 209 -9 314 14 97 22 290 39 386 33 58 -3 136 -18 235 -45 180 -50 269
-63 329 -51 25 6 102 41 172 79 l128 70 66 -61 c37 -34 132 -113 212 -177 80
-64 151 -122 158 -129 33 -33 100 -83 111 -83 6 0 11 8 11 19 0 21 -64 79
-248 224 -74 59 -120 102 -116 109 4 7 3 8 -4 4 -11 -7 -142 99 -142 114 0 4
41 26 90 49 80 37 106 60 83 74 -5 3 -25 -1 -45 -9z"/>
<path d="M4425 1519 c-9 -13 227 -58 425 -80 210 -24 626 8 589 45 -2 3 -33
-2 -69 -10 -38 -9 -141 -18 -250 -21 -199 -6 -316 5 -564 51 -70 12 -129 19
-131 15z"/>
<path d="M4445 1440 c-6 -10 8 -15 85 -29 121 -23 260 -30 580 -31 371 -1 365
-1 330 10 -14 4 -167 8 -341 9 -315 1 -465 10 -586 35 -35 8 -66 10 -68 6z"/>
</g>
</svg>
